PathFileType	4	(X/Y/Z)
DataRate	CameraRate	NumFrames	NumMarkers	Units	OrigDataRate	OrigDataStartFrame	OrigNumFrames	
  100.0	  100.0	    4	     56	     mm	  100.0	      1	    253
Frame#	Time	LASI			RASI			LPSI			RPSI			RTH1			RTH2			RTH3			RLFC			RMFC			LTH1			LTH2			LTH3			LLFC			LMFC			RTB1			RTB2			RTB3			RLMAL			RMMAL			LTB1			LTB2			LTB3			LMMAL			LLMAL			RCAL			RTOE			RMT5			LCAL			LTOE			LMT5			LACR			RACR			CLAV			C7			LASH			LPSH			RASH			RPSH			RUA1			RUA2			RUA3			RLEL			RMEL			LUA1			LUA2			LUA3			LLEL			LMEL			RFAsuperior			RFAradius			RFAulna			LFAsuperior			LFAradius			LFAulna			RHJC			LHJC			
		X1	Y1	Z1	X2	Y2	Z2	X3	Y3	Z3	X4	Y4	Z4	X5	Y5	Z5	X6	Y6	Z6	X7	Y7	Z7	X8	Y8	Z8	X9	Y9	Z9	X10	Y10	Z10	X11	Y11	Z11	X12	Y12	Z12	X13	Y13	Z13	X14	Y14	Z14	X15	Y15	Z15	X16	Y16	Z16	X17	Y17	Z17	X18	Y18	Z18	X19	Y19	Z19	X20	Y20	Z20	X21	Y21	Z21	X22	Y22	Z22	X23	Y23	Z23	X24	Y24	Z24	X25	Y25	Z25	X26	Y26	Z26	X27	Y27	Z27	X28	Y28	Z28	X29	Y29	Z29	X30	Y30	Z30	X31	Y31	Z31	X32	Y32	Z32	X33	Y33	Z33	X34	Y34	Z34	X35	Y35	Z35	X36	Y36	Z36	X37	Y37	Z37	X38	Y38	Z38	X39	Y39	Z39	X40	Y40	Z40	X41	Y41	Z41	X42	Y42	Z42	X43	Y43	Z43	X44	Y44	Z44	X45	Y45	Z45	X46	Y46	Z46	X47	Y47	Z47	X48	Y48	Z48	X49	Y49	Z49	X50	Y50	Z50	X51	Y51	Z51	X52	Y52	Z52	X53	Y53	Z53	X54	Y54	Z54	X55	Y55	Z55	X56	Y56	Z56	

18	0.18000	505.14908	1050.00277	-632.77382	524.28599	1043.68304	-361.86291	339.83905	1065.32093	-539.32606	343.39505	1063.02205	-439.84438	421.34408	861.48160	-304.89261	502.69476	759.76739	-305.97693	425.77410	639.35011	-320.19278	464.89633	520.07180	-314.00235	454.44752	509.04301	-438.75842	428.79724	862.96305	-681.22891	500.30927	737.10916	-682.31137	445.68151	618.24113	-675.13510	463.88404	526.34593	-676.51115	454.49636	517.04732	-550.57064	483.04322	389.43650	-363.71006	453.58221	341.61080	-292.88748	459.48006	225.75059	-346.33552	406.74357	113.03490	-289.21788	434.37257	120.45275	-380.81811	479.42384	378.31534	-626.74927	423.56325	306.76724	-697.15866	460.62956	225.46463	-636.41062	435.66311	121.97241	-590.93949	411.60997	118.46884	-681.59335	339.23240	100.31385	-340.61335	565.16302	71.76364	-347.00783	514.76676	60.93737	-257.95801	339.86438	96.19263	-625.04136	570.79096	69.11958	-637.14125	509.31697	54.29812	-722.54716	580.18732	1516.89198	-645.78754	601.93918	1498.71104	-348.94479	628.06282	1413.10821	-472.18730	547.40912	1528.32061	-492.51743	612.66936	1445.31980	-660.14761	495.75935	1494.62012	-670.00102	615.14813	1423.00921	-343.56807	503.17404	1495.43270	-318.94716	551.52044	1487.93462	-248.30005	490.44440	1423.65225	-224.64960	523.77081	1428.69357	-150.54376	505.72866	1388.82785	-47.14194	482.34443	1318.55374	-85.25819	521.29316	1488.68831	-741.29818	482.88709	1404.87952	-765.77739	489.98439	1407.27901	-853.09900	500.62541	1375.87062	-938.95333	486.27436	1310.61508	-896.56926	614.32412	1374.51618	-43.91676	760.72609	1338.21438	-69.59719	739.95606	1272.04227	-58.04419	611.15172	1362.74527	-955.33765	762.38284	1324.33395	-944.16652	748.91808	1254.64844	-945.30472	446.99143	955.44530	-400.09515	439.52889	966.59099	-574.75836	
19	0.19000	505.15099	1049.99484	-632.77818	524.29097	1043.67979	-361.85962	339.41227	1065.44120	-539.17007	343.65515	1062.92541	-440.03647	421.36649	861.48558	-304.89827	502.68299	759.76151	-305.98643	425.76459	639.35064	-320.18432	464.82319	520.06353	-314.01752	454.45491	509.06469	-438.76663	428.41273	862.91194	-680.92247	500.13757	737.11513	-682.33968	445.34443	618.19760	-674.85597	463.74333	526.35561	-676.53134	454.49649	517.04822	-550.54397	482.86235	389.40689	-363.74703	453.35336	341.71122	-292.99899	459.31745	225.71909	-346.36465	406.69457	113.01559	-289.25279	434.18392	120.40313	-380.84939	479.35568	378.32790	-626.75859	423.29669	306.69340	-696.87606	459.88041	224.92448	-635.13950	435.63568	121.95893	-590.94105	411.03335	118.54295	-681.64095	339.20333	100.31969	-340.59032	564.96338	71.75224	-347.01279	514.21731	60.05641	-258.06772	339.49779	96.32788	-625.04199	570.39978	68.91584	-637.38238	509.02258	54.22617	-722.64664	580.07731	1516.92487	-645.77836	601.94643	1498.73382	-348.91615	627.90236	1413.13162	-472.22474	547.25677	1528.34682	-492.56206	612.53625	1445.36654	-660.17467	495.58374	1494.64634	-669.93017	615.12985	1423.00917	-343.56471	503.09629	1495.40870	-318.99337	551.43871	1487.98605	-248.31809	490.40862	1423.63598	-224.63982	523.72660	1428.70935	-150.54376	505.61198	1388.85192	-47.15442	482.37390	1318.54133	-85.31408	521.13287	1488.74765	-741.20322	482.56313	1404.89507	-765.64162	489.62976	1407.29919	-852.96933	500.36132	1375.92685	-938.74301	486.25053	1310.60429	-896.56874	614.27146	1374.53917	-43.90219	760.69225	1338.23334	-69.57330	739.89961	1272.06157	-58.01173	611.02408	1362.78054	-955.36789	762.27097	1324.34761	-944.19874	748.80057	1254.64664	-945.33543	446.94986	955.44961	-400.09974	439.50885	966.58963	-574.76358	
20	0.20000	505.14988	1049.99192	-632.77555	524.29777	1043.67683	-361.86295	338.93239	1065.52961	-538.96612	343.86618	1062.82537	-440.15236	421.38686	861.47030	-304.88886	502.68565	759.74154	-305.98539	425.76599	639.33592	-320.17067	464.78119	520.04411	-314.01803	454.46385	509.07945	-438.77614	427.98663	862.86870	-680.55480	499.94605	737.12533	-682.37175	444.93597	618.12102	-674.54044	463.57310	526.36345	-676.55015	454.48958	517.03715	-550.53326	482.66730	389.36908	-363.79189	453.23161	341.74994	-293.05710	459.13746	225.66970	-346.39138	406.66037	112.99336	-289.26280	433.96357	120.34931	-380.88696	479.25746	378.32835	-626.77817	422.98649	306.62774	-696.59666	459.23753	224.49350	-634.14680	435.62271	121.93134	-590.93205	410.50378	118.57861	-681.58882	339.18371	100.31159	-340.53931	564.69053	71.72746	-346.98510	513.79239	59.62674	-258.05100	339.11781	96.43232	-624.98446	569.71647	68.57393	-637.80269	508.71407	54.13643	-722.75181	579.95862	1516.96263	-645.75804	601.94077	1498.73428	-348.89934	627.73759	1413.15002	-472.26361	547.10013	1528.36802	-492.60813	612.37486	1445.41902	-660.21319	495.39127	1494.67197	-669.83083	615.12416	1423.00329	-343.54403	503.00666	1495.37044	-318.99230	551.33206	1488.01673	-248.32971	490.38279	1423.60338	-224.63135	523.69196	1428.71936	-150.53373	505.50608	1388.88354	-47.14874	482.36780	1318.54242	-85.30577	520.95624	1488.79588	-741.07948	482.18254	1404.93019	-765.45444	489.21166	1407.30240	-852.76300	500.05720	1375.97944	-938.49787	486.23755	1310.59003	-896.55336	614.24755	1374.55257	-43.87505	760.66722	1338.24532	-69.53439	739.86420	1272.06989	-57.96402	610.87153	1362.81800	-955.39913	762.13129	1324.36664	-944.23869	748.66094	1254.65446	-945.37859	446.93677	955.44176	-400.08515	439.45658	966.58570	-574.74800	
21	0.21000	505.14482	1049.99689	-632.76451	524.30944	1043.67341	-361.87232	338.45187	1065.60605	-538.75243	343.96284	1062.76075	-440.14535	421.41373	861.44135	-304.86353	502.70542	759.71306	-305.97571	425.78964	639.31018	-320.15265	464.78519	520.01944	-314.00761	454.47602	509.08473	-438.78679	427.55154	862.83662	-680.15184	499.74899	737.14148	-682.40777	444.50776	618.04122	-674.22151	463.38968	526.37108	-676.56869	454.49705	517.02868	-550.53331	482.47003	389.32701	-363.84055	453.23123	341.72664	-293.05771	458.95424	225.60546	-346.41294	406.65435	112.97624	-289.24508	433.72348	120.29791	-380.92765	479.13051	378.31990	-626.80347	422.64165	306.57714	-696.32693	458.78941	224.24259	-633.60092	435.62690	121.89533	-590.91440	410.08806	118.59416	-681.46544	339.17777	100.29629	-340.46682	564.37301	71.67097	-346.93485	513.50139	59.65012	-257.89775	338.74915	96.51469	-624.88169	568.83990	68.14694	-638.33560	508.41181	54.03062	-722.86493	579.83481	1517.00830	-645.73798	601.92832	1498.71234	-348.88853	627.57956	1413.16168	-472.29987	546.95025	1528.38249	-492.65159	612.20075	1445.47116	-660.25851	495.19252	1494.69806	-669.70977	615.13580	1422.98795	-343.50311	502.93349	1495.34716	-318.91380	551.20659	1488.02900	-248.33527	490.37403	1423.56143	-224.61376	523.67209	1428.72724	-150.51261	505.41857	1388.92344	-47.12529	482.33425	1318.56892	-85.24665	520.77514	1488.83366	-740.93608	481.77101	1404.99213	-765.24739	488.77468	1407.31478	-852.52905	499.74224	1376.02950	-938.24893	486.23654	1310.58059	-896.52665	614.25707	1374.56110	-43.83114	760.65390	1338.25505	-69.47634	739.85399	1272.07470	-57.89792	610.70181	1362.85386	-955.42827	761.97109	1324.39311	-944.28202	748.50763	1254.67239	-945.42773	446.93682	955.43367	-400.04940	439.35588	966.59265	-574.70943	
